0
SECTION
2
HEADER
9
$INSUNITS
70
4
9
$ACADVER
1
AC1014
9
$HANDSEED
5
FFFF
0
ENDSEC
0
SECTION
2
TABLES
0
TABLE
2
VPORT
5
8
100
AcDbSymbolTable
0
ENDTAB
0
TABLE
2
LTYPE
5
5
100
AcDbSymbolTable
0
LTYPE
5
14
100
AcDbSymbolTableRecord
100
AcDbLinetypeTableRecord
2
BYBLOCK
70
0
0
LTYPE
5
15
100
AcDbSymbolTableRecord
100
AcDbLinetypeTableRecord
2
BYLAYER
70
0
0
ENDTAB
0
TABLE
2
LAYER
5
2
100
AcDbSymbolTable
70
2
0
LAYER
5
50
100
AcDbSymbolTableRecord
100
AcDbLayerTableRecord
2
0
70
0
6
CONTINUOUS
0
ENDTAB
0
TABLE
2
STYLE
5
3
100
AcDbSymbolTable
70
1
0
STYLE
5
11
100
AcDbSymbolTableRecord
100
AcDbTextStyleTableRecord
2
STANDARD
70
0
0
ENDTAB
0
TABLE
2
VIEW
5
6
100
AcDbSymbolTable
70
0
0
ENDTAB
0
TABLE
2
UCS
5
7
100
AcDbSymbolTable
70
0
0
ENDTAB
0
TABLE
2
APPID
5
9
100
AcDbSymbolTable
70
2
0
APPID
5
12
100
AcDbSymbolTableRecord
100
AcDbRegAppTableRecord
2
ACAD
70
0
0
ENDTAB
0
TABLE
2
DIMSTYLE
5
A
100
AcDbSymbolTable
70
1
0
ENDTAB
0
TABLE
2
BLOCK_RECORD
5
1
100
AcDbSymbolTable
70
1
0
BLOCK_RECORD
5
1F
100
AcDbSymbolTableRecord
100
AcDbBlockTableRecord
2
*MODEL_SPACE
0
BLOCK_RECORD
5
1B
100
AcDbSymbolTableRecord
100
AcDbBlockTableRecord
2
*PAPER_SPACE
0
ENDTAB
0
ENDSEC
0
SECTION
2
BLOCKS
0
BLOCK
5
20
100
AcDbEntity
100
AcDbBlockBegin
2
*MODEL_SPACE
0
ENDBLK
5
21
100
AcDbEntity
100
AcDbBlockEnd
0
BLOCK
5
1C
100
AcDbEntity
100
AcDbBlockBegin
2
*PAPER_SPACE
0
ENDBLK
5
1D
100
AcDbEntity
100
AcDbBlockEnd
0
ENDSEC
0
SECTION
2
ENTITIES
0
LWPOLYLINE
5
100
100
AcDbEntity
8
0
100
AcDbPolyline
90
4
70
1
43
0.0
10
59.917189943042011
20
56.000000000000007
10
63.917189943042018
20
56.000000000000007
10
63.917189943042018
20
59.399999999999991
10
59.917189943042011
20
59.399999999999991
0
LWPOLYLINE
5
101
100
AcDbEntity
8
0
100
AcDbPolyline
90
4
70
1
43
0.0
10
4.5097212282193224
20
33.999999999999993
10
4.5097212282193224
20
38
10
1.1097212282193292
20
38
10
1.1097212282193292
20
33.999999999999993
0
LWPOLYLINE
5
102
100
AcDbEntity
8
0
100
AcDbPolyline
90
4
70
1
43
0.0
10
-45.49027877178068
20
0
10
-45.49027877178068
20
4.0000000000000036
10
-48.890278771780665
20
4.0000000000000036
10
-48.890278771780665
20
0
0
LWPOLYLINE
5
103
100
AcDbEntity
8
0
100
AcDbPolyline
90
4
70
1
43
0.0
10
49.50972122821932
20
0
10
49.50972122821932
20
4.0000000000000036
10
46.109721228219335
20
4.0000000000000036
10
46.109721228219335
20
0
0
LWPOLYLINE
5
104
100
AcDbEntity
8
0
100
AcDbPolyline
90
4
70
1
43
0.0
10
38.667189943042004
20
34
10
38.667189943042004
20
38
10
18.667189943042008
20
38
10
18.667189943042008
20
34
0
LWPOLYLINE
5
105
100
AcDbEntity
8
0
100
AcDbPolyline
90
4
70
1
43
0.0
10
-13.832810056957987
20
34
10
-13.832810056957987
20
38
10
-33.832810056957989
20
38
10
-33.832810056957989
20
34
0
CIRCLE
5
106
100
AcDbEntity
8
0
100
AcDbCircle
10
78.252754636820967
20
53.993023223459851
30
0
40
2.5
0
LWPOLYLINE
5
107
100
AcDbEntity
8
0
100
AcDbPolyline
90
4
70
1
43
0.0
10
59.917189943042011
20
9.9999999999999982
10
63.917189943042018
20
10
10
63.917189943042018
20
20
10
59.917189943042011
20
20
0
LWPOLYLINE
5
108
100
AcDbEntity
8
0
100
AcDbPolyline
90
4
70
1
43
0.0
10
59.917189943042011
20
44
10
63.917189943042018
20
44
10
63.917189943042018
20
54
10
59.917189943042011
20
54
0
LWPOLYLINE
5
109
100
AcDbEntity
8
0
100
AcDbPolyline
90
4
70
1
43
0.0
10
19.917189943042011
20
4
10
19.917189943042011
20
0
10
39.917189943042018
20
0
10
39.917189943042018
20
4
0
LWPOLYLINE
5
110
100
AcDbEntity
8
0
100
AcDbPolyline
90
4
70
1
43
0.0
10
-40.082810056957989
20
4
10
-40.082810056957989
20
0
10
-20.082810056957982
20
0
10
-20.082810056957982
20
4
0
LWPOLYLINE
5
111
100
AcDbEntity
8
0
100
AcDbPolyline
90
4
70
1
43
0.0
10
-60.082810056957989
20
20
10
-64.082810056957996
20
20
10
-64.082810056957996
20
10
10
-60.082810056957989
20
10
0
LWPOLYLINE
5
112
100
AcDbEntity
8
0
100
AcDbPolyline
90
4
70
1
43
0.0
10
-60.082810056957989
20
53.800000000000011
10
-64.082810056957996
20
53.800000000000011
10
-64.082810056957996
20
44.200000000000003
10
-60.082810056957989
20
44.200000000000003
0
LWPOLYLINE
5
113
100
AcDbEntity
8
0
100
AcDbPolyline
90
16
70
1
43
0.0
10
-67.741363795227315
20
64
10
78.252783655901908
20
63.999999999999993
42
-0.41547770342630425
10
88.252690597971849
20
53.95685895686303
42
-0.41201065072405146
10
78.291860845729516
20
43.993098334455844
42
0.41518702651400019
10
68.258636204772642
20
33.993153528445873
10
68.258636204772614
20
-3.9999999999999973
42
-0.4142135623730902
10
63.258636204772614
20
-8.9999999999999343
10
37.502622978313063
20
-8.9999999999999822
42
-0.41405419062880539
10
35.002623348610832
20
-6.5013603996654199
10
34.779824591530435
20
-6.5025303312119576
42
0.41451004024515364
10
32.279825872046018
20
-4.0000000000000053
10
-12.672523793911505
20
-4.000000000000008
42
0.41517322479759428
10
-15.172510383777356
20
-6.5081884364155655
42
-0.41299576166389518
10
-17.672488755748354
20
-8.9977894135156404
10
-62.741364283896431
20
-8.9977894135156351
42
-0.41408407513844603
10
-67.741363795227329
20
-4.0000000000000124
0
ENDSEC
0
SECTION
2
OBJECTS
0
DICTIONARY
5
C
100
AcDbDictionary
3
ACAD_GROUP
350
D
3
ACAD_MLINESTYLE
350
17
0
DICTIONARY
5
D
100
AcDbDictionary
0
DICTIONARY
5
1A
330
C
100
AcDbDictionary
0
DICTIONARY
5
17
100
AcDbDictionary
0
ENDSEC
0
EOF
