0
SECTION
2
HEADER
9
$INSUNITS
70
4
9
$ACADVER
1
AC1014
9
$HANDSEED
5
FFFF
0
ENDSEC
0
SECTION
2
TABLES
0
TABLE
2
VPORT
5
8
100
AcDbSymbolTable
0
ENDTAB
0
TABLE
2
LTYPE
5
5
100
AcDbSymbolTable
0
LTYPE
5
14
100
AcDbSymbolTableRecord
100
AcDbLinetypeTableRecord
2
BYBLOCK
70
0
0
LTYPE
5
15
100
AcDbSymbolTableRecord
100
AcDbLinetypeTableRecord
2
BYLAYER
70
0
0
ENDTAB
0
TABLE
2
LAYER
5
2
100
AcDbSymbolTable
70
2
0
LAYER
5
50
100
AcDbSymbolTableRecord
100
AcDbLayerTableRecord
2
0
70
0
6
CONTINUOUS
0
ENDTAB
0
TABLE
2
STYLE
5
3
100
AcDbSymbolTable
70
1
0
STYLE
5
11
100
AcDbSymbolTableRecord
100
AcDbTextStyleTableRecord
2
STANDARD
70
0
0
ENDTAB
0
TABLE
2
VIEW
5
6
100
AcDbSymbolTable
70
0
0
ENDTAB
0
TABLE
2
UCS
5
7
100
AcDbSymbolTable
70
0
0
ENDTAB
0
TABLE
2
APPID
5
9
100
AcDbSymbolTable
70
2
0
APPID
5
12
100
AcDbSymbolTableRecord
100
AcDbRegAppTableRecord
2
ACAD
70
0
0
ENDTAB
0
TABLE
2
DIMSTYLE
5
A
100
AcDbSymbolTable
70
1
0
ENDTAB
0
TABLE
2
BLOCK_RECORD
5
1
100
AcDbSymbolTable
70
1
0
BLOCK_RECORD
5
1F
100
AcDbSymbolTableRecord
100
AcDbBlockTableRecord
2
*MODEL_SPACE
0
BLOCK_RECORD
5
1B
100
AcDbSymbolTableRecord
100
AcDbBlockTableRecord
2
*PAPER_SPACE
0
ENDTAB
0
ENDSEC
0
SECTION
2
BLOCKS
0
BLOCK
5
20
100
AcDbEntity
100
AcDbBlockBegin
2
*MODEL_SPACE
0
ENDBLK
5
21
100
AcDbEntity
100
AcDbBlockEnd
0
BLOCK
5
1C
100
AcDbEntity
100
AcDbBlockBegin
2
*PAPER_SPACE
0
ENDBLK
5
1D
100
AcDbEntity
100
AcDbBlockEnd
0
ENDSEC
0
SECTION
2
ENTITIES
0
LWPOLYLINE
5
100
100
AcDbEntity
8
0
100
AcDbPolyline
90
11
70
1
43
0.0
10
5.3854112025315093
20
8.7854112025314919
10
5.5854112025315095
20
8.5854112025314908
10
13.185411202531515
20
8.5854112025314873
10
13.385411202531516
20
8.7854112025314883
10
13.385411202531524
20
21.110804537281052
10
10.845223242539097
20
24.116397310215071
10
10.694085425981132
20
24.185411202531505
10
8.076736979081911
20
24.185411202531508
10
7.9255991625239464
20
24.116397310215074
10
5.434273385973551
20
21.241790644964624
10
5.3854112025315164
20
21.110804537281052
0
CIRCLE
5
101
100
AcDbEntity
8
0
100
AcDbCircle
10
20
20
12
30
0
40
3.899999999999999
0
LWPOLYLINE
5
102
100
AcDbEntity
8
0
100
AcDbPolyline
90
4
70
1
43
0.0
10
40
20
7.9999999999999982
10
40
20
28
10
25.999999999999996
20
28
10
25.999999999999996
20
7.9999999999999982
0
LWPOLYLINE
5
103
100
AcDbEntity
8
0
100
AcDbPolyline
90
44
70
1
43
0.0
10
46.778598485611255
20
56.000000000000007
10
54.778598485611276
20
56
10
54.778598485611276
20
54.165203597427805
10
58.778598485611269
20
54.165203597427805
10
58.778598485611269
20
43.834796402572202
10
54.778598485611269
20
43.834796402572202
10
54.778598485611269
20
20
10
58.778598485611269
20
20
10
58.778598485611269
20
10
10
54.778598485611269
20
10
10
54.778598485611269
20
-3.9999999999999991
10
-45.221401514388752
20
-4
10
-45.221401514388731
20
9.9999999999999982
10
-49.221401514388738
20
10
10
-49.221401514388738
20
20
10
-45.221401514388731
20
20
10
-45.221401514388731
20
44
10
-49.221401514388738
20
44
10
-49.221401514388738
20
54
10
-45.221401514388731
20
54
10
-45.221401514388724
20
56.000000000000007
10
-37.221401514388752
20
56.000000000000007
10
-37.221401514388752
20
54.349999999999994
10
-33.921401514388748
20
54.349999999999994
10
-33.921401514388748
20
56.000000000000007
10
-32.221401514388752
20
56.000000000000007
10
-32.221401514388752
20
59.400000000000006
10
-33.921401514388748
20
59.400000000000006
10
-33.921401514388748
20
61.049999999999997
10
-37.221401514388752
20
61.049999999999997
10
-37.221401514388752
20
59.400000000000006
10
-45.221401514388724
20
59.399999999999991
10
-45.221401514388724
20
64
10
54.778598485611276
20
64
10
54.778598485611276
20
59.399999999999991
10
46.778598485611255
20
59.400000000000006
10
46.778598485611255
20
61.050000000000011
10
43.478598485611251
20
61.050000000000011
10
43.478598485611251
20
59.400000000000006
10
41.778598485611255
20
59.400000000000006
10
41.778598485611255
20
56.000000000000007
10
43.478598485611251
20
56.000000000000007
10
43.478598485611251
20
54.350000000000016
10
46.778598485611241
20
54.350000000000016
0
LWPOLYLINE
5
104
100
AcDbEntity
8
0
100
AcDbPolyline
90
4
70
1
43
0.0
10
39.778598485611255
20
0
10
39.778598485611255
20
4
10
19.778598485611258
20
4
10
19.778598485611258
20
0
0
LWPOLYLINE
5
105
100
AcDbEntity
8
0
100
AcDbPolyline
90
4
70
1
43
0.0
10
-10.221401514388743
20
0
10
-10.221401514388743
20
4
10
-30.221401514388742
20
4
10
-30.221401514388742
20
0
0
ENDSEC
0
SECTION
2
OBJECTS
0
DICTIONARY
5
C
100
AcDbDictionary
3
ACAD_GROUP
350
D
3
ACAD_MLINESTYLE
350
17
0
DICTIONARY
5
D
100
AcDbDictionary
0
DICTIONARY
5
1A
330
C
100
AcDbDictionary
0
DICTIONARY
5
17
100
AcDbDictionary
0
ENDSEC
0
EOF
