0
SECTION
2
HEADER
9
$INSUNITS
70
4
9
$ACADVER
1
AC1014
9
$HANDSEED
5
FFFF
0
ENDSEC
0
SECTION
2
TABLES
0
TABLE
2
VPORT
5
8
100
AcDbSymbolTable
0
ENDTAB
0
TABLE
2
LTYPE
5
5
100
AcDbSymbolTable
0
LTYPE
5
14
100
AcDbSymbolTableRecord
100
AcDbLinetypeTableRecord
2
BYBLOCK
70
0
0
LTYPE
5
15
100
AcDbSymbolTableRecord
100
AcDbLinetypeTableRecord
2
BYLAYER
70
0
0
ENDTAB
0
TABLE
2
LAYER
5
2
100
AcDbSymbolTable
70
2
0
LAYER
5
50
100
AcDbSymbolTableRecord
100
AcDbLayerTableRecord
2
0
70
0
6
CONTINUOUS
0
ENDTAB
0
TABLE
2
STYLE
5
3
100
AcDbSymbolTable
70
1
0
STYLE
5
11
100
AcDbSymbolTableRecord
100
AcDbTextStyleTableRecord
2
STANDARD
70
0
0
ENDTAB
0
TABLE
2
VIEW
5
6
100
AcDbSymbolTable
70
0
0
ENDTAB
0
TABLE
2
UCS
5
7
100
AcDbSymbolTable
70
0
0
ENDTAB
0
TABLE
2
APPID
5
9
100
AcDbSymbolTable
70
2
0
APPID
5
12
100
AcDbSymbolTableRecord
100
AcDbRegAppTableRecord
2
ACAD
70
0
0
ENDTAB
0
TABLE
2
DIMSTYLE
5
A
100
AcDbSymbolTable
70
1
0
ENDTAB
0
TABLE
2
BLOCK_RECORD
5
1
100
AcDbSymbolTable
70
1
0
BLOCK_RECORD
5
1F
100
AcDbSymbolTableRecord
100
AcDbBlockTableRecord
2
*MODEL_SPACE
0
BLOCK_RECORD
5
1B
100
AcDbSymbolTableRecord
100
AcDbBlockTableRecord
2
*PAPER_SPACE
0
ENDTAB
0
ENDSEC
0
SECTION
2
BLOCKS
0
BLOCK
5
20
100
AcDbEntity
100
AcDbBlockBegin
2
*MODEL_SPACE
0
ENDBLK
5
21
100
AcDbEntity
100
AcDbBlockEnd
0
BLOCK
5
1C
100
AcDbEntity
100
AcDbBlockBegin
2
*PAPER_SPACE
0
ENDBLK
5
1D
100
AcDbEntity
100
AcDbBlockEnd
0
ENDSEC
0
SECTION
2
ENTITIES
0
LWPOLYLINE
5
100
100
AcDbEntity
8
0
100
AcDbPolyline
90
4
70
1
43
0.0
10
63.917189943042004
20
59.399999999999991
10
59.917189943042004
20
59.399999999999991
10
59.917189943042004
20
56
10
63.917189943042004
20
56
0
LWPOLYLINE
5
101
100
AcDbEntity
8
0
100
AcDbPolyline
90
4
70
1
43
0.0
10
1.3097212282193507
20
38
10
1.3097212282193511
20
33.999999999999993
10
4.7097212282193492
20
33.999999999999993
10
4.7097212282193492
20
38
0
LWPOLYLINE
5
102
100
AcDbEntity
8
0
100
AcDbPolyline
90
4
70
1
43
0.0
10
-48.690278771780655
20
4.0000000000000036
10
-48.690278771780655
20
0
10
-45.290278771780656
20
0
10
-45.290278771780656
20
4.0000000000000036
0
LWPOLYLINE
5
103
100
AcDbEntity
8
0
100
AcDbPolyline
90
4
70
1
43
0.0
10
46.309721228219338
20
4.0000000000000036
10
46.309721228219338
20
0
10
49.709721228219337
20
0
10
49.709721228219337
20
4.0000000000000036
0
LWPOLYLINE
5
104
100
AcDbEntity
8
0
100
AcDbPolyline
90
4
70
1
43
0.0
10
-33.83281005695801
20
38
10
-33.83281005695801
20
33.999999999999993
10
-13.83281005695801
20
33.999999999999993
10
-13.83281005695801
20
38
0
LWPOLYLINE
5
105
100
AcDbEntity
8
0
100
AcDbPolyline
90
4
70
1
43
0.0
10
18.667189943042008
20
38
10
18.667189943042008
20
34
10
38.667189943042011
20
34
10
38.667189943042011
20
38
0
CIRCLE
5
106
100
AcDbEntity
8
0
100
AcDbCircle
10
-10.37289463309815
20
56.5
30
0
40
1.5000000000000013
0
CIRCLE
5
107
100
AcDbEntity
8
0
100
AcDbCircle
10
-19.872894633098152
20
56.5
30
0
40
1.4999999999999991
0
CIRCLE
5
108
100
AcDbEntity
8
0
100
AcDbCircle
10
78.252754636820953
20
53.993023223459851
30
0
40
2.5
0
LWPOLYLINE
5
109
100
AcDbEntity
8
0
100
AcDbPolyline
90
4
70
1
43
0.0
10
63.917189943042018
20
54.165203597427805
10
59.917189943042011
20
54.165203597427805
10
59.917189943042011
20
43.834796402572202
10
63.917189943042018
20
43.834796402572202
0
LWPOLYLINE
5
110
100
AcDbEntity
8
0
100
AcDbPolyline
90
4
70
1
43
0.0
10
63.917189943042004
20
20
10
59.917189943042004
20
20
10
59.917189943042004
20
10
10
63.917189943042004
20
10
0
LWPOLYLINE
5
111
100
AcDbEntity
8
0
100
AcDbPolyline
90
4
70
1
43
0.0
10
-64.08281005695801
20
9.9999999999999982
10
-60.08281005695801
20
10
10
-60.08281005695801
20
20
10
-64.08281005695801
20
20
0
LWPOLYLINE
5
112
100
AcDbEntity
8
0
100
AcDbPolyline
90
4
70
1
43
0.0
10
-60.08281005695801
20
54
10
-64.08281005695801
20
54
10
-64.08281005695801
20
44
10
-60.08281005695801
20
44
0
LWPOLYLINE
5
113
100
AcDbEntity
8
0
100
AcDbPolyline
90
4
70
1
43
0.0
10
19.917189943042011
20
4
10
19.917189943042011
20
0
10
39.917189943042011
20
0
10
39.917189943042011
20
4
0
LWPOLYLINE
5
114
100
AcDbEntity
8
0
100
AcDbPolyline
90
4
70
1
43
0.0
10
-40.082810056958024
20
4
10
-40.082810056958024
20
0
10
-20.082810056958017
20
0
10
-20.082810056958024
20
4
0
LWPOLYLINE
5
115
100
AcDbEntity
8
0
100
AcDbPolyline
90
16
70
1
43
0.0
10
68.258636204772628
20
33.993153528445873
42
-0.41518702651400252
10
78.291860845729516
20
43.993098334455837
42
0.41201065072405091
10
88.252690597971849
20
53.95685895686303
42
0.41547770342630402
10
78.252783655901908
20
64
10
-67.741363795227329
20
64
10
-67.741363795227329
20
-4.0000000000000124
42
0.4140840751384457
10
-62.741364283896445
20
-8.9977894135156404
10
-17.672488755748354
20
-8.9977894135156422
42
0.4129957616638944
10
-15.172510383777361
20
-6.5081884364155655
42
-0.415173224797594
10
-12.672523793911514
20
-4.000000000000008
10
32.279825872046018
20
-4.0000000000000036
42
-0.41451004024515181
10
34.779824591530428
20
-6.5025303312119576
10
35.002623348610825
20
-6.501360399665419
42
0.41405419062880666
10
37.502622978313063
20
-8.999999999999984
10
63.258636204772607
20
-8.9999999999999325
42
0.41421356237308982
10
68.258636204772614
20
-3.9999999999999991
0
ENDSEC
0
SECTION
2
OBJECTS
0
DICTIONARY
5
C
100
AcDbDictionary
3
ACAD_GROUP
350
D
3
ACAD_MLINESTYLE
350
17
0
DICTIONARY
5
D
100
AcDbDictionary
0
DICTIONARY
5
1A
330
C
100
AcDbDictionary
0
DICTIONARY
5
17
100
AcDbDictionary
0
ENDSEC
0
EOF
