0
SECTION
2
HEADER
9
$INSUNITS
70
4
9
$ACADVER
1
AC1014
9
$HANDSEED
5
FFFF
0
ENDSEC
0
SECTION
2
TABLES
0
TABLE
2
VPORT
5
8
100
AcDbSymbolTable
0
ENDTAB
0
TABLE
2
LTYPE
5
5
100
AcDbSymbolTable
0
LTYPE
5
14
100
AcDbSymbolTableRecord
100
AcDbLinetypeTableRecord
2
BYBLOCK
70
0
0
LTYPE
5
15
100
AcDbSymbolTableRecord
100
AcDbLinetypeTableRecord
2
BYLAYER
70
0
0
ENDTAB
0
TABLE
2
LAYER
5
2
100
AcDbSymbolTable
70
2
0
LAYER
5
50
100
AcDbSymbolTableRecord
100
AcDbLayerTableRecord
2
0
70
0
6
CONTINUOUS
0
ENDTAB
0
TABLE
2
STYLE
5
3
100
AcDbSymbolTable
70
1
0
STYLE
5
11
100
AcDbSymbolTableRecord
100
AcDbTextStyleTableRecord
2
STANDARD
70
0
0
ENDTAB
0
TABLE
2
VIEW
5
6
100
AcDbSymbolTable
70
0
0
ENDTAB
0
TABLE
2
UCS
5
7
100
AcDbSymbolTable
70
0
0
ENDTAB
0
TABLE
2
APPID
5
9
100
AcDbSymbolTable
70
2
0
APPID
5
12
100
AcDbSymbolTableRecord
100
AcDbRegAppTableRecord
2
ACAD
70
0
0
ENDTAB
0
TABLE
2
DIMSTYLE
5
A
100
AcDbSymbolTable
70
1
0
ENDTAB
0
TABLE
2
BLOCK_RECORD
5
1
100
AcDbSymbolTable
70
1
0
BLOCK_RECORD
5
1F
100
AcDbSymbolTableRecord
100
AcDbBlockTableRecord
2
*MODEL_SPACE
0
BLOCK_RECORD
5
1B
100
AcDbSymbolTableRecord
100
AcDbBlockTableRecord
2
*PAPER_SPACE
0
ENDTAB
0
ENDSEC
0
SECTION
2
BLOCKS
0
BLOCK
5
20
100
AcDbEntity
100
AcDbBlockBegin
2
*MODEL_SPACE
0
ENDBLK
5
21
100
AcDbEntity
100
AcDbBlockEnd
0
BLOCK
5
1C
100
AcDbEntity
100
AcDbBlockBegin
2
*PAPER_SPACE
0
ENDBLK
5
1D
100
AcDbEntity
100
AcDbBlockEnd
0
ENDSEC
0
SECTION
2
ENTITIES
0
LWPOLYLINE
5
100
100
AcDbEntity
8
0
100
AcDbPolyline
90
84
70
1
43
0.0
10
-54.778598485611255
20
-49.709721228219337
10
-46.778598485611255
20
-49.709721228219337
10
-46.778598485611241
20
-51.359721228219328
10
-43.478598485611251
20
-51.359721228219328
10
-43.478598485611251
20
-49.709721228219337
10
-41.778598485611255
20
-49.709721228219337
10
-41.778598485611255
20
-46.309721228219338
10
-43.478598485611251
20
-46.309721228219338
10
-43.478598485611251
20
-44.659721228219325
10
-46.778598485611255
20
-44.659721228219325
10
-46.778598485611255
20
-46.309721228219338
10
-54.778598485611255
20
-46.309721228219345
10
-54.778598485611255
20
-39.917189943042011
10
-58.778598485611262
20
-39.917189943042011
10
-58.778598485611262
20
-19.917189943042015
10
-54.778598485611255
20
-19.917189943042018
10
-54.778598485611255
20
20.08281005695801
10
-58.778598485611262
20
20.082810056958014
10
-58.778598485611262
20
40.08281005695801
10
-54.778598485611255
20
40.08281005695801
10
-54.778598485611255
20
45.290278771780656
10
-46.778598485611255
20
45.290278771780656
10
-46.778598485611255
20
43.640278771780665
10
-43.478598485611251
20
43.640278771780665
10
-43.478598485611251
20
45.290278771780656
10
-41.778598485611255
20
45.290278771780656
10
-41.778598485611255
20
48.690278771780655
10
-43.478598485611251
20
48.690278771780655
10
-43.478598485611251
20
50.34027877178066
10
-46.778598485611262
20
50.34027877178066
10
-46.778598485611255
20
48.690278771780655
10
-54.778598485611255
20
48.69027877178064
10
-54.778598485611255
20
60.082810056958003
10
-39.778598485611255
20
60.082810056957996
10
-39.778598485611248
20
64.08281005695801
10
-19.778598485611248
20
64.082810056958024
10
-19.778598485611251
20
60.082810056957996
10
10.22140151438874
20
60.082810056957989
10
10.221401514388738
20
64.082810056957996
10
30.221401514388742
20
64.082810056957996
10
30.221401514388742
20
60.082810056957989
10
45.221401514388745
20
60.082810056957989
10
45.221401514388745
20
48.890278771780665
10
37.221401514388731
20
48.890278771780672
10
37.221401514388731
20
50.540278771780663
10
33.921401514388727
20
50.540278771780663
10
33.921401514388727
20
48.890278771780672
10
32.221401514388731
20
48.890278771780672
10
32.221401514388731
20
45.49027877178068
10
33.921401514388727
20
45.49027877178068
10
33.921401514388727
20
43.840278771780667
10
37.221401514388731
20
43.840278771780667
10
37.221401514388731
20
45.49027877178068
10
45.221401514388745
20
45.49027877178068
10
45.221401514388745
20
40.082810056957989
10
49.221401514388745
20
40.082810056957989
10
49.221401514388745
20
20.082810056957982
10
45.221401514388745
20
20.082810056957982
10
45.221401514388745
20
-19.917189943042011
10
49.221401514388745
20
-19.917189943042018
10
49.221401514388745
20
-39.917189943042018
10
45.221401514388745
20
-39.917189943042018
10
45.221401514388745
20
-46.109721228219335
10
37.221401514388731
20
-46.109721228219328
10
37.221401514388731
20
-44.459721228219337
10
33.921401514388734
20
-44.459721228219337
10
33.921401514388734
20
-46.109721228219328
10
32.221401514388731
20
-46.109721228219328
10
32.221401514388731
20
-49.50972122821932
10
33.921401514388734
20
-49.50972122821932
10
33.921401514388734
20
-51.159721228219333
10
37.221401514388731
20
-51.159721228219333
10
37.221401514388731
20
-49.50972122821932
10
45.221401514388745
20
-49.50972122821932
10
45.221401514388745
20
-59.917189943042011
10
30.221401514388742
20
-59.917189943042011
10
30.221401514388742
20
-63.917189943042018
10
10.221401514388745
20
-63.917189943042018
10
10.221401514388742
20
-59.917189943042011
10
-19.778598485611258
20
-59.917189943042018
10
-19.778598485611255
20
-63.917189943042004
10
-39.778598485611255
20
-63.917189943042004
10
-39.778598485611255
20
-59.917189943042011
10
-54.778598485611255
20
-59.917189943042011
0
ENDSEC
0
SECTION
2
OBJECTS
0
DICTIONARY
5
C
100
AcDbDictionary
3
ACAD_GROUP
350
D
3
ACAD_MLINESTYLE
350
17
0
DICTIONARY
5
D
100
AcDbDictionary
0
DICTIONARY
5
1A
330
C
100
AcDbDictionary
0
DICTIONARY
5
17
100
AcDbDictionary
0
ENDSEC
0
EOF
