0
SECTION
2
HEADER
9
$INSUNITS
70
4
9
$ACADVER
1
AC1014
9
$HANDSEED
5
FFFF
0
ENDSEC
0
SECTION
2
TABLES
0
TABLE
2
VPORT
5
8
100
AcDbSymbolTable
0
ENDTAB
0
TABLE
2
LTYPE
5
5
100
AcDbSymbolTable
0
LTYPE
5
14
100
AcDbSymbolTableRecord
100
AcDbLinetypeTableRecord
2
BYBLOCK
70
0
0
LTYPE
5
15
100
AcDbSymbolTableRecord
100
AcDbLinetypeTableRecord
2
BYLAYER
70
0
0
ENDTAB
0
TABLE
2
LAYER
5
2
100
AcDbSymbolTable
70
2
0
LAYER
5
50
100
AcDbSymbolTableRecord
100
AcDbLayerTableRecord
2
0
70
0
6
CONTINUOUS
0
ENDTAB
0
TABLE
2
STYLE
5
3
100
AcDbSymbolTable
70
1
0
STYLE
5
11
100
AcDbSymbolTableRecord
100
AcDbTextStyleTableRecord
2
STANDARD
70
0
0
ENDTAB
0
TABLE
2
VIEW
5
6
100
AcDbSymbolTable
70
0
0
ENDTAB
0
TABLE
2
UCS
5
7
100
AcDbSymbolTable
70
0
0
ENDTAB
0
TABLE
2
APPID
5
9
100
AcDbSymbolTable
70
2
0
APPID
5
12
100
AcDbSymbolTableRecord
100
AcDbRegAppTableRecord
2
ACAD
70
0
0
ENDTAB
0
TABLE
2
DIMSTYLE
5
A
100
AcDbSymbolTable
70
1
0
ENDTAB
0
TABLE
2
BLOCK_RECORD
5
1
100
AcDbSymbolTable
70
1
0
BLOCK_RECORD
5
1F
100
AcDbSymbolTableRecord
100
AcDbBlockTableRecord
2
*MODEL_SPACE
0
BLOCK_RECORD
5
1B
100
AcDbSymbolTableRecord
100
AcDbBlockTableRecord
2
*PAPER_SPACE
0
ENDTAB
0
ENDSEC
0
SECTION
2
BLOCKS
0
BLOCK
5
20
100
AcDbEntity
100
AcDbBlockBegin
2
*MODEL_SPACE
0
ENDBLK
5
21
100
AcDbEntity
100
AcDbBlockEnd
0
BLOCK
5
1C
100
AcDbEntity
100
AcDbBlockBegin
2
*PAPER_SPACE
0
ENDBLK
5
1D
100
AcDbEntity
100
AcDbBlockEnd
0
ENDSEC
0
SECTION
2
ENTITIES
0
LWPOLYLINE
5
100
100
AcDbEntity
8
0
100
AcDbPolyline
90
12
70
1
43
0.0
10
-67.721721622274444
20
95.008234851109151
42
-0.41402804129411319
10
-54.721724230458307
20
108
10
57.116033550433968
20
108
42
-0.3126824584727968
10
73.971087803204298
20
96.317210312801734
10
90.82544304828383
20
51.347823829721769
42
-0.41421356237309848
10
86.434674739963526
20
41.692713594066518
10
85.209610297125295
20
41.233564094095421
42
-0.35701926301912718
10
76.214002982747573
20
44.287035163603363
10
63.950001413566014
20
63.947400081420973
10
64.156611362202426
20
63.947400081420973
10
63.917189943042004
20
64
10
-67.741363795227315
20
64
0
LWPOLYLINE
5
101
100
AcDbEntity
8
0
100
AcDbPolyline
90
4
70
1
43
0.0
10
59.682990408865074
20
68
10
63.682990408865081
20
68
10
63.682990408865081
20
71.400000000000006
10
59.682990408865074
20
71.400000000000006
0
LWPOLYLINE
5
102
100
AcDbEntity
8
0
100
AcDbPolyline
90
4
70
1
43
0.0
10
-63.927596514357241
20
68
10
-59.927596514357234
20
68
10
-59.927596514357234
20
71.400000000000006
10
-63.927596514357241
20
71.400000000000006
0
LWPOLYLINE
5
103
100
AcDbEntity
8
0
100
AcDbPolyline
90
4
70
1
43
0.0
10
-48.690278771780655
20
104
10
-48.690278771780655
20
100
10
-45.290278771780656
20
100
10
-45.290278771780656
20
104
0
LWPOLYLINE
5
104
100
AcDbEntity
8
0
100
AcDbPolyline
90
4
70
1
43
0.0
10
46.309721228219338
20
104
10
46.309721228219338
20
100
10
49.709721228219337
20
100
10
49.709721228219337
20
104
0
LWPOLYLINE
5
105
100
AcDbEntity
8
0
100
AcDbPolyline
90
4
70
1
43
0.0
10
59.68299040886486
20
77.982466666666681
10
63.682990408864868
20
77.982466666666681
10
63.682990408864853
20
87.982466666666681
10
59.682990408864853
20
87.982466666666681
0
LWPOLYLINE
5
106
100
AcDbEntity
8
0
100
AcDbPolyline
90
4
70
1
43
0.0
10
-63.927596514357234
20
75.862660577574289
10
-59.927596514357226
20
75.862660577574289
10
-59.927596514357226
20
85.999999999714802
10
-63.927596514357234
20
85.999999999714802
0
LWPOLYLINE
5
107
100
AcDbEntity
8
0
100
AcDbPolyline
90
4
70
1
43
0.0
10
-19.927596514357226
20
104
10
-39.927596514357226
20
104
10
-39.927596514357226
20
100
10
-19.927596514357226
20
100
0
LWPOLYLINE
5
108
100
AcDbEntity
8
0
100
AcDbPolyline
90
4
70
1
43
0.0
10
39.68299040886486
20
104
10
19.682990408864868
20
104
10
19.682990408864868
20
100
10
39.68299040886486
20
100
0
CIRCLE
5
109
100
AcDbEntity
8
0
100
AcDbCircle
10
78.252754636820967
20
53.993023223459851
30
0
40
2.5
0
ENDSEC
0
SECTION
2
OBJECTS
0
DICTIONARY
5
C
100
AcDbDictionary
3
ACAD_GROUP
350
D
3
ACAD_MLINESTYLE
350
17
0
DICTIONARY
5
D
100
AcDbDictionary
0
DICTIONARY
5
1A
330
C
100
AcDbDictionary
0
DICTIONARY
5
17
100
AcDbDictionary
0
ENDSEC
0
EOF
