0
SECTION
2
HEADER
9
$INSUNITS
70
4
9
$ACADVER
1
AC1014
9
$HANDSEED
5
FFFF
0
ENDSEC
0
SECTION
2
TABLES
0
TABLE
2
VPORT
5
8
100
AcDbSymbolTable
0
ENDTAB
0
TABLE
2
LTYPE
5
5
100
AcDbSymbolTable
0
LTYPE
5
14
100
AcDbSymbolTableRecord
100
AcDbLinetypeTableRecord
2
BYBLOCK
70
0
0
LTYPE
5
15
100
AcDbSymbolTableRecord
100
AcDbLinetypeTableRecord
2
BYLAYER
70
0
0
ENDTAB
0
TABLE
2
LAYER
5
2
100
AcDbSymbolTable
70
2
0
LAYER
5
50
100
AcDbSymbolTableRecord
100
AcDbLayerTableRecord
2
0
70
0
6
CONTINUOUS
0
ENDTAB
0
TABLE
2
STYLE
5
3
100
AcDbSymbolTable
70
1
0
STYLE
5
11
100
AcDbSymbolTableRecord
100
AcDbTextStyleTableRecord
2
STANDARD
70
0
0
ENDTAB
0
TABLE
2
VIEW
5
6
100
AcDbSymbolTable
70
0
0
ENDTAB
0
TABLE
2
UCS
5
7
100
AcDbSymbolTable
70
0
0
ENDTAB
0
TABLE
2
APPID
5
9
100
AcDbSymbolTable
70
2
0
APPID
5
12
100
AcDbSymbolTableRecord
100
AcDbRegAppTableRecord
2
ACAD
70
0
0
ENDTAB
0
TABLE
2
DIMSTYLE
5
A
100
AcDbSymbolTable
70
1
0
ENDTAB
0
TABLE
2
BLOCK_RECORD
5
1
100
AcDbSymbolTable
70
1
0
BLOCK_RECORD
5
1F
100
AcDbSymbolTableRecord
100
AcDbBlockTableRecord
2
*MODEL_SPACE
0
BLOCK_RECORD
5
1B
100
AcDbSymbolTableRecord
100
AcDbBlockTableRecord
2
*PAPER_SPACE
0
ENDTAB
0
ENDSEC
0
SECTION
2
BLOCKS
0
BLOCK
5
20
100
AcDbEntity
100
AcDbBlockBegin
2
*MODEL_SPACE
0
ENDBLK
5
21
100
AcDbEntity
100
AcDbBlockEnd
0
BLOCK
5
1C
100
AcDbEntity
100
AcDbBlockBegin
2
*PAPER_SPACE
0
ENDBLK
5
1D
100
AcDbEntity
100
AcDbBlockEnd
0
ENDSEC
0
SECTION
2
ENTITIES
0
LWPOLYLINE
5
100
100
AcDbEntity
8
0
100
AcDbPolyline
90
84
70
1
43
0.0
10
41.221401514388738
20
-46.109721228219335
10
33.221401514388731
20
-46.109721228219328
10
33.221401514388731
20
-44.459721228219337
10
29.92140151438873
20
-44.459721228219337
10
29.92140151438873
20
-46.109721228219328
10
28.221401514388731
20
-46.109721228219328
10
28.221401514388731
20
-49.50972122821932
10
29.92140151438873
20
-49.50972122821932
10
29.92140151438873
20
-51.159721228219333
10
33.221401514388731
20
-51.159721228219333
10
33.221401514388731
20
-49.50972122821932
10
41.221401514388738
20
-49.509721228219334
10
41.221401514388738
20
-63.682990408864875
10
23.14140151438874
20
-63.682990408864868
10
23.141401514388747
20
-59.68299040886486
10
13.141401514388749
20
-59.68299040886486
10
13.14140151438874
20
-63.682990408864868
10
-22.298598485611258
20
-63.682990408864868
10
-22.298598485611247
20
-59.68299040886486
10
-32.298598485611251
20
-59.68299040886486
10
-32.298598485611258
20
-63.682990408864868
10
-50.778598485611269
20
-63.682990408864868
10
-50.778598485611269
20
-49.709721228219344
10
-42.778598485611255
20
-49.709721228219344
10
-42.778598485611255
20
-51.359721228219335
10
-39.478598485611258
20
-51.359721228219335
10
-39.478598485611258
20
-49.709721228219344
10
-37.778598485611255
20
-49.709721228219344
10
-37.778598485611255
20
-46.309721228219345
10
-39.478598485611258
20
-46.309721228219345
10
-39.478598485611258
20
-44.65972122821934
10
-42.778598485611255
20
-44.65972122821934
10
-42.778598485611255
20
-46.309721228219345
10
-50.778598485611269
20
-46.309721228219345
10
-50.778598485611269
20
-39.682990408864868
10
-54.778598485611255
20
-39.682990408864868
10
-54.778598485611255
20
-19.682990408864871
10
-50.778598485611241
20
-19.682990408864871
10
-50.778598485611255
20
19.927596514357223
10
-54.778598485611276
20
19.927596514357223
10
-54.778598485611276
20
39.927596514357219
10
-50.778598485611269
20
39.927596514357219
10
-50.778598485611269
20
45.290278771780635
10
-42.778598485611219
20
45.290278771780649
10
-42.778598485611219
20
43.640278771780658
10
-39.478598485611222
20
43.640278771780658
10
-39.478598485611222
20
45.290278771780649
10
-37.778598485611219
20
45.290278771780649
10
-37.778598485611219
20
48.69027877178064
10
-39.478598485611222
20
48.69027877178064
10
-39.478598485611222
20
50.340278771780653
10
-42.778598485611219
20
50.340278771780653
10
-42.778598485611219
20
48.69027877178064
10
-50.778598485611269
20
48.690278771780633
10
-50.778598485611269
20
63.927596514357212
10
-32.298598485611237
20
63.927596514357212
10
-32.298598485611237
20
59.927596514357205
10
-22.298598485611237
20
59.927596514357205
10
-22.298598485611237
20
63.927596514357212
10
13.141401514388749
20
63.927596514357212
10
13.141401514388749
20
59.927596514357205
10
23.141401514388747
20
59.927596514357205
10
23.141401514388747
20
63.927596514357212
10
41.221401514388738
20
63.927596514357212
10
41.221401514388738
20
48.890278771780672
10
33.221401514388745
20
48.890278771780672
10
33.221401514388745
20
50.540278771780663
10
29.921401514388744
20
50.540278771780663
10
29.921401514388744
20
48.890278771780672
10
28.221401514388745
20
48.890278771780672
10
28.221401514388745
20
45.49027877178068
10
29.921401514388744
20
45.49027877178068
10
29.921401514388744
20
43.840278771780667
10
33.221401514388745
20
43.840278771780667
10
33.221401514388745
20
45.49027877178068
10
41.221401514388738
20
45.49027877178068
10
41.221401514388738
20
39.927596514357219
10
45.221401514388745
20
39.927596514357234
10
45.221401514388745
20
19.92759651435723
10
41.221401514388738
20
19.927596514357223
10
41.221401514388738
20
-19.682990408864868
10
45.221401514388745
20
-19.682990408864871
10
45.221401514388745
20
-39.682990408864868
10
41.221401514388738
20
-39.682990408864868
0
ENDSEC
0
SECTION
2
OBJECTS
0
DICTIONARY
5
C
100
AcDbDictionary
3
ACAD_GROUP
350
D
3
ACAD_MLINESTYLE
350
17
0
DICTIONARY
5
D
100
AcDbDictionary
0
DICTIONARY
5
1A
330
C
100
AcDbDictionary
0
DICTIONARY
5
17
100
AcDbDictionary
0
ENDSEC
0
EOF
