0
SECTION
2
HEADER
9
$INSUNITS
70
4
9
$ACADVER
1
AC1014
9
$HANDSEED
5
FFFF
0
ENDSEC
0
SECTION
2
TABLES
0
TABLE
2
VPORT
5
8
100
AcDbSymbolTable
0
ENDTAB
0
TABLE
2
LTYPE
5
5
100
AcDbSymbolTable
0
LTYPE
5
14
100
AcDbSymbolTableRecord
100
AcDbLinetypeTableRecord
2
BYBLOCK
70
0
0
LTYPE
5
15
100
AcDbSymbolTableRecord
100
AcDbLinetypeTableRecord
2
BYLAYER
70
0
0
ENDTAB
0
TABLE
2
LAYER
5
2
100
AcDbSymbolTable
70
2
0
LAYER
5
50
100
AcDbSymbolTableRecord
100
AcDbLayerTableRecord
2
0
70
0
6
CONTINUOUS
0
ENDTAB
0
TABLE
2
STYLE
5
3
100
AcDbSymbolTable
70
1
0
STYLE
5
11
100
AcDbSymbolTableRecord
100
AcDbTextStyleTableRecord
2
STANDARD
70
0
0
ENDTAB
0
TABLE
2
VIEW
5
6
100
AcDbSymbolTable
70
0
0
ENDTAB
0
TABLE
2
UCS
5
7
100
AcDbSymbolTable
70
0
0
ENDTAB
0
TABLE
2
APPID
5
9
100
AcDbSymbolTable
70
2
0
APPID
5
12
100
AcDbSymbolTableRecord
100
AcDbRegAppTableRecord
2
ACAD
70
0
0
ENDTAB
0
TABLE
2
DIMSTYLE
5
A
100
AcDbSymbolTable
70
1
0
ENDTAB
0
TABLE
2
BLOCK_RECORD
5
1
100
AcDbSymbolTable
70
1
0
BLOCK_RECORD
5
1F
100
AcDbSymbolTableRecord
100
AcDbBlockTableRecord
2
*MODEL_SPACE
0
BLOCK_RECORD
5
1B
100
AcDbSymbolTableRecord
100
AcDbBlockTableRecord
2
*PAPER_SPACE
0
ENDTAB
0
ENDSEC
0
SECTION
2
BLOCKS
0
BLOCK
5
20
100
AcDbEntity
100
AcDbBlockBegin
2
*MODEL_SPACE
0
ENDBLK
5
21
100
AcDbEntity
100
AcDbBlockEnd
0
BLOCK
5
1C
100
AcDbEntity
100
AcDbBlockBegin
2
*PAPER_SPACE
0
ENDBLK
5
1D
100
AcDbEntity
100
AcDbBlockEnd
0
ENDSEC
0
SECTION
2
ENTITIES
0
LWPOLYLINE
5
100
100
AcDbEntity
8
0
100
AcDbPolyline
90
44
70
1
43
0.0
10
45.221401514388745
20
-1.1097212282193292
10
37.22140151438871
20
-1.1097212282193247
10
37.22140151438871
20
0.54027877178066674
10
33.921401514388712
20
0.54027877178066674
10
33.921401514388712
20
-1.1097212282193247
10
32.22140151438871
20
-1.1097212282193247
10
32.22140151438871
20
-4.5097212282193233
10
33.921401514388712
20
-4.5097212282193233
10
33.921401514388712
20
-6.1597212282193325
10
37.22140151438871
20
-6.1597212282193325
10
37.22140151438871
20
-4.5097212282193233
10
45.221401514388745
20
-4.5097212282193215
10
45.221401514388745
20
-18.667189943042008
10
49.221401514388752
20
-18.667189943042008
10
49.221401514388752
20
-38.667189943042004
10
45.221401514388745
20
-38.667189943042004
10
45.221401514388731
20
-44.917189943042011
10
-54.778598485611269
20
-44.917189943042011
10
-54.778598485611269
20
-38.667189943042011
10
-58.778598485611269
20
-38.667189943042011
10
-58.778598485611269
20
-18.667189943042011
10
-54.778598485611269
20
-18.667189943042011
10
-54.778598485611269
20
-4.7097212282193448
10
-46.778598485611255
20
-4.7097212282193457
10
-46.778598485611255
20
-6.3597212282193372
10
-43.478598485611251
20
-6.3597212282193372
10
-43.478598485611251
20
-4.7097212282193457
10
-41.778598485611255
20
-4.7097212282193457
10
-41.778598485611255
20
-1.3097212282193471
10
-43.478598485611251
20
-1.3097212282193471
10
-43.478598485611251
20
0.34027877178066213
10
-46.778598485611262
20
0.34027877178066213
10
-46.778598485611255
20
-1.3097212282193471
10
-54.778598485611269
20
-1.309721228219356
10
-54.778598485611269
20
13.832810056958005
10
-58.778598485611262
20
13.832810056958005
10
-58.778598485611262
20
33.832810056958003
10
-54.778598485611269
20
33.832810056958003
10
-54.778598485611269
20
40.082810056958003
10
45.221401514388731
20
40.082810056957989
10
45.221401514388745
20
33.832810056957989
10
49.221401514388745
20
33.832810056957989
10
49.221401514388745
20
13.832810056957987
10
45.221401514388745
20
13.832810056957987
0
CIRCLE
5
101
100
AcDbEntity
8
0
100
AcDbCircle
10
-16.078598485611259
20
-13.717189943042003
30
0
40
1.4999999999999991
0
CIRCLE
5
102
100
AcDbEntity
8
0
100
AcDbCircle
10
-16.078598485611259
20
8.8828100569579984
30
0
40
1.5000000000000013
0
CIRCLE
5
103
100
AcDbEntity
8
0
100
AcDbCircle
10
6.5214015143887423
20
-13.717189943042003
30
0
40
1.5000000000000002
0
CIRCLE
5
104
100
AcDbEntity
8
0
100
AcDbCircle
10
6.5214015143887423
20
8.8828100569579984
30
0
40
1.5000000000000002
0
ENDSEC
0
SECTION
2
OBJECTS
0
DICTIONARY
5
C
100
AcDbDictionary
3
ACAD_GROUP
350
D
3
ACAD_MLINESTYLE
350
17
0
DICTIONARY
5
D
100
AcDbDictionary
0
DICTIONARY
5
1A
330
C
100
AcDbDictionary
0
DICTIONARY
5
17
100
AcDbDictionary
0
ENDSEC
0
EOF
